<?xml version="1.0" standalone="no"?>
<!DOCTYPE svg PUBLIC "-//W3C//DTD SVG 20010904//EN"
 "http://www.w3.org/TR/2001/REC-SVG-20010904/DTD/svg10.dtd">
<svg version="1.0" xmlns="http://www.w3.org/2000/svg"
 width="1920.000000pt" height="1920.000000pt" viewBox="0 0 1920.000000 1920.000000"
 preserveAspectRatio="xMidYMid meet">

<defs>
  <linearGradient id="blueGradient" x1="100%" y1="90%" x2="30%" y2="10%">
    <stop offset="0%" style="stop-color:#00aaff;stop-opacity:1" />
    <stop offset="100%" style="stop-color:#003399;stop-opacity:1" />
  </linearGradient>
</defs>

<g transform="translate(0.000000,1920.000000) scale(0.100000,-0.100000)"
fill="url(#blueGradient)" stroke="none">
<path d="M11065 15189 c-185 -35 -370 -141 -477 -275 -105 -131 -27 95 -1742
-5052 -894 -2683 -1631 -4908 -1637 -4946 -30 -177 17 -391 121 -549 113 -174
270 -286 485 -345 86 -24 297 -23 385 2 223 63 407 211 509 409 47 89 3254
9705 3276 9820 45 234 -16 468 -172 659 -173 213 -479 326 -748 277z"/>
<path d="M5450 13585 c-148 -30 -262 -87 -384 -191 -39 -34 -796 -788 -1682
-1675 -1754 -1758 -1667 -1665 -1734 -1848 -85 -232 -54 -498 82 -709 41 -64
336 -363 1701 -1729 1753 -1753 1717 -1718 1865 -1773 119 -45 173 -55 302
-54 146 0 224 16 346 74 163 78 295 211 374 374 59 124 74 191 74 341 1 134
-8 186 -54 307 -55 146 -42 133 -1463 1556 l-1342 1342 1346 1348 c885 885
1359 1367 1383 1405 96 148 130 263 130 442 1 152 -15 227 -75 352 -154 323
-522 508 -869 438z"/>
<path d="M13465 13589 c-349 -69 -597 -323 -656 -674 -21 -122 -2 -276 51
-417 54 -146 42 -134 1463 -1555 l1342 -1343 -1342 -1342 c-1421 -1423 -1408
-1410 -1463 -1556 -44 -116 -54 -174 -54 -302 -1 -224 75 -410 229 -565 155
-154 340 -230 565 -229 198 0 353 53 502 173 40 32 803 789 1695 1682 1345
1347 1630 1637 1672 1702 173 268 173 606 -1 875 -41 64 -336 363 -1701 1729
-1374 1373 -1665 1660 -1730 1702 -131 84 -250 121 -412 126 -60 2 -132 0
-160 -6z"/>
</g>
</svg>